<svg xmlns="http://www.w3.org/2000/svg" data-name="Layer 1" viewBox="0 0 100 100">
    <path fill="currentColor" d="M50 36a14 14 0 1 0 12.9 8.55A14 14 0 0 0 50 36Zm0 20a6 6 0 1 1 6-6 6 6 0 0 1-6 6Z" />
    <path fill="currentColor" d="M81.39 43.75a3.87 3.87 0 0 0-5.26-2.81l-.23.06a3.89 3.89 0 0 0-2.34 4.38A24 24 0 1 1 50 26a23.81 23.81 0 0 1 4.73.48A3.83 3.83 0 0 0 59 24.09l.09-.21a3.87 3.87 0 0 0-2.84-5.27A32 32 0 0 0 18 48.82a32 32 0 1 0 63.36-5.07Z" />
    <circle fill="currentColor" cx="72" cy="28" r="4" />
</svg>